<svg xmlns="http://www.w3.org/2000/svg" width="16" height="16" viewBox="0 0 16 16"><defs><style>.a{fill:#c4e63f;}</style></defs><path class="a" d="M10.25,7.393a2.857,2.857,0,1,0,2.857,2.857A2.865,2.865,0,0,0,10.25,7.393Zm6.819,2.1a6.883,6.883,0,0,0-6.057-6.057V2.25H9.488V3.431A6.883,6.883,0,0,0,3.431,9.488H2.25v1.524H3.431a6.883,6.883,0,0,0,6.057,6.057V18.25h1.524V17.069a6.883,6.883,0,0,0,6.057-6.057H18.25V9.488Zm-6.819,6.1a5.333,5.333,0,1,1,5.333-5.333A5.349,5.349,0,0,1,10.25,15.583Z" transform="translate(-2.25 -2.25)"/></svg>